<svg width="24" height="25" viewBox="0 0 24 25" fill="none" xmlns="http://www.w3.org/2000/svg">
<g clip-path="url(#clip0_6_65)">
<path d="M19.43 13.6212C19.47 13.3012 19.5 12.9812 19.5 12.6412C19.5 12.3012 19.47 11.9812 19.43 11.6612L21.54 10.0112C21.73 9.86124 21.78 9.59123 21.66 9.37123L19.66 5.91124C19.57 5.75124 19.4 5.66124 19.22 5.66124C19.16 5.66124 19.1 5.67124 19.05 5.69124L16.56 6.69124C16.04 6.29124 15.48 5.96124 14.87 5.71124L14.49 3.06124C14.46 2.82124 14.25 2.64124 14 2.64124H9.99996C9.74996 2.64124 9.53996 2.82124 9.50996 3.06124L9.12996 5.71124C8.51996 5.96124 7.95996 6.30124 7.43996 6.69124L4.94996 5.69124C4.88996 5.67124 4.82996 5.66124 4.76996 5.66124C4.59996 5.66124 4.42996 5.75124 4.33996 5.91124L2.33996 9.37123C2.20996 9.59123 2.26996 9.86124 2.45996 10.0112L4.56996 11.6612C4.52996 11.9812 4.49996 12.3112 4.49996 12.6412C4.49996 12.9712 4.52996 13.3012 4.56996 13.6212L2.45996 15.2712C2.26996 15.4212 2.21996 15.6912 2.33996 15.9112L4.33996 19.3712C4.42996 19.5312 4.59996 19.6212 4.77996 19.6212C4.83996 19.6212 4.89996 19.6112 4.94996 19.5912L7.43996 18.5912C7.95996 18.9912 8.51996 19.3212 9.12996 19.5712L9.50996 22.2212C9.53996 22.4612 9.74996 22.6412 9.99996 22.6412H14C14.25 22.6412 14.46 22.4612 14.49 22.2212L14.87 19.5712C15.48 19.3212 16.04 18.9812 16.56 18.5912L19.05 19.5912C19.11 19.6112 19.17 19.6212 19.23 19.6212C19.4 19.6212 19.57 19.5312 19.66 19.3712L21.66 15.9112C21.78 15.6912 21.73 15.4212 21.54 15.2712L19.43 13.6212ZM17.45 11.9112C17.49 12.2212 17.5 12.4312 17.5 12.6412C17.5 12.8512 17.48 13.0712 17.45 13.3712L17.31 14.5012L18.2 15.2012L19.28 16.0412L18.58 17.2512L17.31 16.7412L16.27 16.3212L15.37 17.0012C14.94 17.3212 14.53 17.5612 14.12 17.7312L13.06 18.1612L12.9 19.2912L12.7 20.6412H11.3L11.11 19.2912L10.95 18.1612L9.88996 17.7312C9.45996 17.5512 9.05996 17.3212 8.65996 17.0212L7.74996 16.3212L6.68996 16.7512L5.41996 17.2612L4.71996 16.0512L5.79996 15.2112L6.68996 14.5112L6.54996 13.3812C6.51996 13.0712 6.49996 12.8412 6.49996 12.6412C6.49996 12.4412 6.51996 12.2112 6.54996 11.9112L6.68996 10.7812L5.79996 10.0812L4.71996 9.24124L5.41996 8.03124L6.68996 8.54124L7.72996 8.96124L8.62996 8.28124C9.05996 7.96124 9.46996 7.72124 9.87996 7.55124L10.94 7.12124L11.1 5.99124L11.3 4.64124H12.69L12.88 5.99124L13.04 7.12124L14.1 7.55124C14.53 7.73124 14.93 7.96124 15.33 8.26124L16.24 8.96124L17.3 8.53124L18.57 8.02124L19.27 9.23124L18.2 10.0812L17.31 10.7812L17.45 11.9112ZM12 8.64124C9.78996 8.64124 7.99996 10.4312 7.99996 12.6412C7.99996 14.8512 9.78996 16.6412 12 16.6412C14.21 16.6412 16 14.8512 16 12.6412C16 10.4312 14.21 8.64124 12 8.64124ZM12 14.6412C10.9 14.6412 9.99996 13.7412 9.99996 12.6412C9.99996 11.5412 10.9 10.6412 12 10.6412C13.1 10.6412 14 11.5412 14 12.6412C14 13.7412 13.1 14.6412 12 14.6412Z" fill="#666666"/>
</g>
<defs>
<clipPath id="clip0_6_65">
<rect width="24" height="24" fill="white" transform="translate(0 0.641235)"/>
</clipPath>
</defs>
</svg>
